{"accessors" : [{"bufferView" : 0, "byteOffset" : 0, "componentType" : 5123, "count" : 6, "type" : "SCALAR", "max" : [5], "min" : [0]}, {"bufferView" : 1, "byteOffset" : 0, "componentType" : 5126, "count" : 6, "type" : "VEC3", "max" : [158.76600646972656, 162.76600646972656, 166.76600646972656], "min" : [-1.2339999675750732, 2.7660000324249268, 6.765999794006348]}, {"bufferView" : 1, "byteOffset" : 12, "componentType" : 5126, "count" : 6, "type" : "VEC3", "max" : [170.76600646972656, 174.76600646972656, 178.76600646972656], "min" : [10.765999794006348, 14.765999794006348, 18.766000747680664]}, {"bufferView" : 1, "byteOffset" : 24, "componentType" : 5126, "count" : 6, "type" : "VEC2", "max" : [182.76600646972656, 186.76600646972656], "min" : [22.766000747680664, 26.766000747680664]}, {"bufferView" : 0, "byteOffset" : 12, "componentType" : 5123, "count" : 126, "type" : "SCALAR", "max" : [125], "min" : [0]}, {"bufferView" : 2, "byteOffset" : 0, "componentType" : 5126, "count" : 126, "type" : "VEC3", "max" : [3998.75, 4002.75, 4006.75], "min" : [-1.2499998807907104, 2.75, 6.75]}, {"bufferView" : 2, "byteOffset" : 12, "componentType" : 5126, "count" : 126, "type" : "VEC3", "max" : [4010.75, 4014.75, 4018.75], "min" : [10.75, 14.75, 18.75]}, {"bufferView" : 2, "byteOffset" : 24, "componentType" : 5126, "count" : 126, "type" : "VEC2", "max" : [4022.75, 4026.75], "min" : [22.75, 26.75]}, {"bufferView" : 0, "byteOffset" : 264, "componentType" : 5123, "count" : 72, "type" : "SCALAR", "max" : [71], "min" : [0]}, {"bufferView" : 3, "byteOffset" : 0, "componentType" : 5126, "count" : 72, "type" : "VEC3", "max" : [2272.35009765625, 2276.35009765625, 2280.35009765625], "min" : [0.3500002920627594, 4.350000381469727, 8.350000381469727]}, {"bufferView" : 3, "byteOffset" : 12, "componentType" : 5126, "count" : 72, "type" : "VEC3", "max" : [2284.35009765625, 2288.35009765625, 2292.35009765625], "min" : [12.350000381469727, 16.350000381469727, 20.350000381469727]}, {"bufferView" : 3, "byteOffset" : 24, "componentType" : 5126, "count" : 72, "type" : "VEC2", "max" : [2296.35009765625, 2300.35009765625], "min" : [24.350000381469727, 28.350000381469727]}, {"bufferView" : 0, "byteOffset" : 408, "componentType" : 5123, "count" : 108, "type" : "SCALAR", "max" : [107], "min" : [0]}, {"bufferView" : 4, "byteOffset" : 0, "componentType" : 5126, "count" : 108, "type" : "VEC3", "max" : [3424.7041015625, 3428.7041015625, 3432.7041015625], "min" : [0.7040003538131714, 4.704000473022461, 8.704000473022461]}, {"bufferView" : 4, "byteOffset" : 12, "componentType" : 5126, "count" : 108, "type" : "VEC3", "max" : [3436.7041015625, 3440.7041015625, 3444.7041015625], "min" : [12.704000473022461, 16.70400047302246, 20.70400047302246]}, {"bufferView" : 4, "byteOffset" : 24, "componentType" : 5126, "count" : 108, "type" : "VEC2", "max" : [3448.7041015625, 3452.7041015625], "min" : [24.70400047302246, 28.70400047302246]}, {"bufferView" : 0, "byteOffset" : 624, "componentType" : 5123, "count" : 156, "type" : "SCALAR", "max" : [155], "min" : [0]}, {"bufferView" : 5, "byteOffset" : 0, "componentType" : 5126, "count" : 156, "type" : "VEC3", "max" : [4960.72216796875, 4964.72216796875, 4968.72216796875], "min" : [0.7220003008842468, 4.7220001220703125, 8.722000122070312]}, {"bufferView" : 5, "byteOffset" : 12, "componentType" : 5126, "count" : 156, "type" : "VEC3", "max" : [4972.72216796875, 4976.72216796875, 4980.72216796875], "min" : [12.722000122070312, 16.722000122070312, 20.722000122070312]}, {"bufferView" : 5, "byteOffset" : 24, "componentType" : 5126, "count" : 156, "type" : "VEC2", "max" : [4984.72216796875, 4988.72216796875], "min" : [24.722000122070312, 28.722000122070312]}, {"bufferView" : 0, "byteOffset" : 936, "componentType" : 5123, "count" : 156, "type" : "SCALAR", "max" : [155], "min" : [0]}, {"bufferView" : 6, "byteOffset" : 0, "componentType" : 5126, "count" : 156, "type" : "VEC3", "max" : [4960.72216796875, 4964.72216796875, 4968.72216796875], "min" : [0.7220003008842468, 4.7220001220703125, 8.722000122070312]}, {"bufferView" : 6, "byteOffset" : 12, "componentType" : 5126, "count" : 156, "type" : "VEC3", "max" : [4972.72216796875, 4976.72216796875, 4980.72216796875], "min" : [12.722000122070312, 16.722000122070312, 20.722000122070312]}, {"bufferView" : 6, "byteOffset" : 24, "componentType" : 5126, "count" : 156, "type" : "VEC2", "max" : [4984.72216796875, 4988.72216796875], "min" : [24.722000122070312, 28.722000122070312]}, {"bufferView" : 0, "byteOffset" : 1248, "componentType" : 5123, "count" : 156, "type" : "SCALAR", "max" : [155], "min" : [0]}, {"bufferView" : 7, "byteOffset" : 0, "componentType" : 5126, "count" : 156, "type" : "VEC3", "max" : [4960.72216796875, 4964.72216796875, 4968.72216796875], "min" : [0.7220003008842468, 4.7220001220703125, 8.722000122070312]}, {"bufferView" : 7, "byteOffset" : 12, "componentType" : 5126, "count" : 156, "type" : "VEC3", "max" : [4972.72216796875, 4976.72216796875, 4980.72216796875], "min" : [12.722000122070312, 16.722000122070312, 20.722000122070312]}, {"bufferView" : 7, "byteOffset" : 24, "componentType" : 5126, "count" : 156, "type" : "VEC2", "max" : [4984.72216796875, 4988.72216796875], "min" : [24.722000122070312, 28.722000122070312]}, {"bufferView" : 0, "byteOffset" : 1560, "componentType" : 5123, "count" : 30, "type" : "SCALAR", "max" : [29], "min" : [0]}, {"bufferView" : 8, "byteOffset" : 0, "componentType" : 5126, "count" : 30, "type" : "VEC3", "max" : [928.308837890625, 932.308837890625, 936.308837890625], "min" : [0.30882883071899414, 4.308828830718994, 8.308828353881836]}, {"bufferView" : 8, "byteOffset" : 12, "componentType" : 5126, "count" : 30, "type" : "VEC3", "max" : [940.308837890625, 944.308837890625, 948.308837890625], "min" : [12.308828353881836, 16.308828353881836, 20.308828353881836]}, {"bufferView" : 8, "byteOffset" : 24, "componentType" : 5126, "count" : 30, "type" : "VEC2", "max" : [952.308837890625, 956.308837890625], "min" : [24.308828353881836, 28.308828353881836]}, {"bufferView" : 0, "byteOffset" : 1620, "componentType" : 5123, "count" : 54, "type" : "SCALAR", "max" : [53], "min" : [0]}, {"bufferView" : 9, "byteOffset" : 0, "componentType" : 5126, "count" : 54, "type" : "VEC3", "max" : [1696.2928466796875, 1700.2928466796875, 1704.2928466796875], "min" : [0.2928290367126465, 4.2928290367126465, 8.292829513549805]}, {"bufferView" : 9, "byteOffset" : 12, "componentType" : 5126, "count" : 54, "type" : "VEC3", "max" : [1708.2928466796875, 1712.2928466796875, 1716.2928466796875], "min" : [12.292829513549805, 16.292829513549805, 20.292829513549805]}, {"bufferView" : 9, "byteOffset" : 24, "componentType" : 5126, "count" : 54, "type" : "VEC2", "max" : [1720.2928466796875, 1724.2928466796875], "min" : [24.292829513549805, 28.292829513549805]}, {"bufferView" : 0, "byteOffset" : 1728, "componentType" : 5123, "count" : 24, "type" : "SCALAR", "max" : [23], "min" : [0]}, {"bufferView" : 10, "byteOffset" : 0, "componentType" : 5126, "count" : 24, "type" : "VEC3", "max" : [736.341064453125, 740.341064453125, 744.341064453125], "min" : [0.34105825424194336, 4.341058254241943, 8.341058731079102]}, {"bufferView" : 10, "byteOffset" : 12, "componentType" : 5126, "count" : 24, "type" : "VEC3", "max" : [748.341064453125, 752.341064453125, 756.341064453125], "min" : [12.341058731079102, 16.3410587310791, 20.3410587310791]}, {"bufferView" : 10, "byteOffset" : 24, "componentType" : 5126, "count" : 24, "type" : "VEC2", "max" : [760.341064453125, 764.341064453125], "min" : [24.3410587310791, 28.3410587310791]}, {"bufferView" : 0, "byteOffset" : 1776, "componentType" : 5123, "count" : 54, "type" : "SCALAR", "max" : [53], "min" : [0]}, {"bufferView" : 11, "byteOffset" : 0, "componentType" : 5126, "count" : 54, "type" : "VEC3", "max" : [1696.3250732421875, 1700.3250732421875, 1704.3250732421875], "min" : [0.3250584602355957, 4.325058460235596, 8.325057983398438]}, {"bufferView" : 11, "byteOffset" : 12, "componentType" : 5126, "count" : 54, "type" : "VEC3", "max" : [1708.3250732421875, 1712.3250732421875, 1716.3250732421875], "min" : [12.325057983398438, 16.325057983398438, 20.325057983398438]}, {"bufferView" : 11, "byteOffset" : 24, "componentType" : 5126, "count" : 54, "type" : "VEC2", "max" : [1720.3250732421875, 1724.3250732421875], "min" : [24.325057983398438, 28.325057983398438]}, {"bufferView" : 0, "byteOffset" : 1884, "componentType" : 5123, "count" : 6, "type" : "SCALAR", "max" : [5], "min" : [0]}, {"bufferView" : 12, "byteOffset" : 0, "componentType" : 5126, "count" : 6, "type" : "VEC3", "max" : [160.341064453125, 164.341064453125, 168.341064453125], "min" : [0.34105825424194336, 4.341058254241943, 8.341058731079102]}, {"bufferView" : 12, "byteOffset" : 12, "componentType" : 5126, "count" : 6, "type" : "VEC3", "max" : [172.341064453125, 176.341064453125, 180.341064453125], "min" : [12.341058731079102, 16.3410587310791, 20.3410587310791]}, {"bufferView" : 12, "byteOffset" : 24, "componentType" : 5126, "count" : 6, "type" : "VEC2", "max" : [184.341064453125, 188.341064453125], "min" : [24.3410587310791, 28.3410587310791]}, {"bufferView" : 0, "byteOffset" : 1896, "componentType" : 5123, "count" : 102, "type" : "SCALAR", "max" : [101], "min" : [0]}, {"bufferView" : 13, "byteOffset" : 0, "componentType" : 5126, "count" : 102, "type" : "VEC3", "max" : [3232.738037109375, 3236.738037109375, 3240.738037109375], "min" : [0.7380002737045288, 4.738000392913818, 8.73799991607666]}, {"bufferView" : 13, "byteOffset" : 12, "componentType" : 5126, "count" : 102, "type" : "VEC3", "max" : [3244.738037109375, 3248.738037109375, 3252.738037109375], "min" : [12.73799991607666, 16.738000869750977, 20.738000869750977]}, {"bufferView" : 13, "byteOffset" : 24, "componentType" : 5126, "count" : 102, "type" : "VEC2", "max" : [3256.738037109375, 3260.738037109375], "min" : [24.738000869750977, 28.738000869750977]}, {"bufferView" : 0, "byteOffset" : 2100, "componentType" : 5123, "count" : 36, "type" : "SCALAR", "max" : [35], "min" : [0]}, {"bufferView" : 14, "byteOffset" : 0, "componentType" : 5126, "count" : 36, "type" : "VEC3", "max" : [1119.988037109375, 1123.988037109375, 1127.988037109375], "min" : [-0.011999726295471191, 3.9880003929138184, 7.988000392913818]}, {"bufferView" : 14, "byteOffset" : 12, "componentType" : 5126, "count" : 36, "type" : "VEC3", "max" : [1131.988037109375, 1135.988037109375, 1139.988037109375], "min" : [11.98799991607666, 15.98799991607666, 19.988000869750977]}, {"bufferView" : 14, "byteOffset" : 24, "componentType" : 5126, "count" : 36, "type" : "VEC2", "max" : [1143.988037109375, 1147.988037109375], "min" : [23.988000869750977, 27.988000869750977]}], "asset" : {"generator" : "Aspose.3D 20.8", "version" : "2.0"}, "buffers" : [{"uri" : "buffer.bin", "byteLength" : 36984}], "bufferViews" : [{"buffer" : 0, "byteOffset" : 0, "byteLength" : 2172, "target" : 34963}, {"buffer" : 0, "byteOffset" : 2176, "byteLength" : 192, "byteStride" : 32, "target" : 34962}, {"buffer" : 0, "byteOffset" : 2372, "byteLength" : 4032, "byteStride" : 32, "target" : 34962}, {"buffer" : 0, "byteOffset" : 6408, "byteLength" : 2304, "byteStride" : 32, "target" : 34962}, {"buffer" : 0, "byteOffset" : 8716, "byteLength" : 3456, "byteStride" : 32, "target" : 34962}, {"buffer" : 0, "byteOffset" : 12176, "byteLength" : 4992, "byteStride" : 32, "target" : 34962}, {"buffer" : 0, "byteOffset" : 17172, "byteLength" : 4992, "byteStride" : 32, "target" : 34962}, {"buffer" : 0, "byteOffset" : 22168, "byteLength" : 4992, "byteStride" : 32, "target" : 34962}, {"buffer" : 0, "byteOffset" : 27164, "byteLength" : 960, "byteStride" : 32, "target" : 34962}, {"buffer" : 0, "byteOffset" : 28128, "byteLength" : 1728, "byteStride" : 32, "target" : 34962}, {"buffer" : 0, "byteOffset" : 29860, "byteLength" : 768, "byteStride" : 32, "target" : 34962}, {"buffer" : 0, "byteOffset" : 30632, "byteLength" : 1728, "byteStride" : 32, "target" : 34962}, {"buffer" : 0, "byteOffset" : 32364, "byteLength" : 192, "byteStride" : 32, "target" : 34962}, {"buffer" : 0, "byteOffset" : 32560, "byteLength" : 3264, "byteStride" : 32, "target" : 34962}, {"buffer" : 0, "byteOffset" : 35828, "byteLength" : 1152, "byteStride" : 32, "target" : 34962}], "materials" : [{"pbrMetallicRoughness" : {"baseColorFactor" : [0.3013763725757599, 0.291793555021286, 0.8000000715255737, 1], "metallicFactor" : 0, "roughnessFactor" : 1}, "emissiveFactor" : [0, 0, 0], "alphaMode" : "OPAQUE", "doubleSided" : true}, {"pbrMetallicRoughness" : {"baseColorFactor" : [0.29021772742271423, 0.8000000715255737, 0.07988645136356354, 1], "metallicFactor" : 0, "roughnessFactor" : 1}, "emissiveFactor" : [0, 0, 0], "alphaMode" : "OPAQUE", "doubleSided" : true}, {"pbrMetallicRoughness" : {"baseColorFactor" : [0.2686636745929718, 0.12573708593845367, 0.8000000715255737, 1], "metallicFactor" : 0, "roughnessFactor" : 1}, "emissiveFactor" : [0, 0, 0], "alphaMode" : "OPAQUE", "doubleSided" : true}, {"pbrMetallicRoughness" : {"baseColorFactor" : [0.2686636745929718, 0.12573708593845367, 0.8000000715255737, 1], "metallicFactor" : 0, "roughnessFactor" : 1}, "emissiveFactor" : [0, 0, 0], "alphaMode" : "OPAQUE", "doubleSided" : true}, {"pbrMetallicRoughness" : {"baseColorFactor" : [0.8000000715255737, 0.4519141614437103, 0.23543451726436615, 1], "metallicFactor" : 0, "roughnessFactor" : 1}, "emissiveFactor" : [0, 0, 0], "alphaMode" : "OPAQUE", "doubleSided" : true}, {"pbrMetallicRoughness" : {"baseColorFactor" : [0.8000000715255737, 0.4519141614437103, 0.23543451726436615, 1], "metallicFactor" : 0, "roughnessFactor" : 1}, "emissiveFactor" : [0, 0, 0], "alphaMode" : "OPAQUE", "doubleSided" : true}, {"pbrMetallicRoughness" : {"baseColorFactor" : [0.8000000715255737, 0.4519141614437103, 0.23543451726436615, 1], "metallicFactor" : 0, "roughnessFactor" : 1}, "emissiveFactor" : [0, 0, 0], "alphaMode" : "OPAQUE", "doubleSided" : true}, {"pbrMetallicRoughness" : {"baseColorFactor" : [0.11690450459718704, 0.10027963668107986, 0.8000000715255737, 1], "metallicFactor" : 0, "roughnessFactor" : 0.5}, "emissiveFactor" : [0, 0, 0], "alphaMode" : "OPAQUE", "doubleSided" : true}, {"pbrMetallicRoughness" : {"baseColorFactor" : [0.42922547459602356, 0.42922547459602356, 0.42922547459602356, 1], "metallicFactor" : 0, "roughnessFactor" : 0.5}, "emissiveFactor" : [0, 0, 0], "alphaMode" : "OPAQUE", "doubleSided" : true}, {"pbrMetallicRoughness" : {"baseColorFactor" : [0.11690450459718704, 0.10027963668107986, 0.8000000715255737, 1], "metallicFactor" : 0, "roughnessFactor" : 0.5}, "emissiveFactor" : [0, 0, 0], "alphaMode" : "OPAQUE", "doubleSided" : true}, {"pbrMetallicRoughness" : {"baseColorFactor" : [0.42922547459602356, 0.42922547459602356, 0.42922547459602356, 1], "metallicFactor" : 0, "roughnessFactor" : 0.5}, "emissiveFactor" : [0, 0, 0], "alphaMode" : "OPAQUE", "doubleSided" : true}, {"pbrMetallicRoughness" : {"baseColorFactor" : [0.8000000715255737, 0.7521117925643921, 0.05055692419409752, 1], "metallicFactor" : 0, "roughnessFactor" : 0.5}, "emissiveFactor" : [0, 0, 0], "alphaMode" : "OPAQUE", "doubleSided" : true}, {"pbrMetallicRoughness" : {"baseColorFactor" : [0.800000011920929, 0.800000011920929, 0.800000011920929, 1], "metallicFactor" : 0, "roughnessFactor" : 1}, "emissiveFactor" : [0, 0, 0], "alphaMode" : "OPAQUE", "doubleSided" : true}, {"pbrMetallicRoughness" : {"baseColorFactor" : [0.2686636745929718, 0.12573708593845367, 0.8000000715255737, 1], "metallicFactor" : 0, "roughnessFactor" : 1}, "emissiveFactor" : [0, 0, 0], "alphaMode" : "OPAQUE", "doubleSided" : true}], "meshes" : [{"primitives" : [{"attributes" : {"POSITION" : 1, "NORMAL" : 2, "TEXCOORD_0" : 3}, "indices" : 0, "material" : 0, "mode" : 4}, {"attributes" : {"POSITION" : 5, "NORMAL" : 6, "TEXCOORD_0" : 7}, "indices" : 4, "material" : 1, "mode" : 4}]}, {"primitives" : [{"attributes" : {"POSITION" : 9, "NORMAL" : 10, "TEXCOORD_0" : 11}, "indices" : 8, "material" : 2, "mode" : 4}]}, {"primitives" : [{"attributes" : {"POSITION" : 13, "NORMAL" : 14, "TEXCOORD_0" : 15}, "indices" : 12, "material" : 3, "mode" : 4}]}, {"primitives" : [{"attributes" : {"POSITION" : 17, "NORMAL" : 18, "TEXCOORD_0" : 19}, "indices" : 16, "material" : 4, "mode" : 4}]}, {"primitives" : [{"attributes" : {"POSITION" : 21, "NORMAL" : 22, "TEXCOORD_0" : 23}, "indices" : 20, "material" : 5, "mode" : 4}]}, {"primitives" : [{"attributes" : {"POSITION" : 25, "NORMAL" : 26, "TEXCOORD_0" : 27}, "indices" : 24, "material" : 6, "mode" : 4}]}, {"primitives" : [{"attributes" : {"POSITION" : 29, "NORMAL" : 30, "TEXCOORD_0" : 31}, "indices" : 28, "material" : 7, "mode" : 4}, {"attributes" : {"POSITION" : 33, "NORMAL" : 34, "TEXCOORD_0" : 35}, "indices" : 32, "material" : 8, "mode" : 4}]}, {"primitives" : [{"attributes" : {"POSITION" : 37, "NORMAL" : 38, "TEXCOORD_0" : 39}, "indices" : 36, "material" : 9, "mode" : 4}, {"attributes" : {"POSITION" : 41, "NORMAL" : 42, "TEXCOORD_0" : 43}, "indices" : 40, "material" : 10, "mode" : 4}, {"attributes" : {"POSITION" : 45, "NORMAL" : 46, "TEXCOORD_0" : 47}, "indices" : 44, "material" : 11, "mode" : 4}]}, {"primitives" : [{"attributes" : {"POSITION" : 49, "NORMAL" : 50, "TEXCOORD_0" : 51}, "indices" : 48, "material" : 12, "mode" : 4}]}, {"primitives" : [{"attributes" : {"POSITION" : 53, "NORMAL" : 54, "TEXCOORD_0" : 55}, "indices" : 52, "material" : 13, "mode" : 4}]}], "nodes" : [{"matrix" : [-1, 0, 3.2584136988589307E-07, 0, 0, 1, 0, 0, -3.2584136988589307E-07, 0, -1, 0, 0, 1.3256480693817139, 0.07105819880962372, 1], "mesh" : 0, "name" : "szafa_korpus"}, {"matrix" : [-1, 0, 3.2584136988589307E-07, 0, 0, 1, 0, 0, -3.2584136988589307E-07, 0, -1, 0, 0, 1.3256480693817139, 0.07105819135904312, 1], "mesh" : 1, "name" : "szafa_przegroda_pion_x2"}, {"matrix" : [-1, 0, 3.2584136988589307E-07, 0, 0, 1, 0, 0, -3.2584136988589307E-07, 0, -1, 0, 0, 1.3256480693817139, 0.07105819135904312, 1], "mesh" : 2, "name" : "szafa_przegroda_pion_x3"}, {"matrix" : [-1, 0, 3.2584136988589307E-07, 0, 0, 1, 0, 0, -3.2584136988589307E-07, 0, -1, 0, 0, 1.3256480693817139, 0.07105819880962372, 1], "mesh" : 3, "name" : "szafa_kontenerek_front1"}, {"matrix" : [-1, 0, 3.2584136988589307E-07, 0, 0, 1, 0, 0, -3.2584136988589307E-07, 0, -1, 0, 0, 1.3256499767303467, 0.07105819880962372, 1], "mesh" : 4, "name" : "szafa_kontenerek_front2"}, {"matrix" : [-1, 0, 3.2584136988589307E-07, 0, 0, 1, 0, 0, -3.2584136988589307E-07, 0, -1, 0, 0, 1.3256480693817139, 0.07105819135904312, 1], "mesh" : 5, "name" : "szafa_kontenerek_front3"}, {"matrix" : [3.422854177870249E-08, 0, 0.9999999657714582, 0, 0, 1, 0, 0, -0.9999999657714582, 0, 3.422854177870249E-08, 0, 0, 1.3256480693817139, 0.07105807960033417, 1], "mesh" : 6, "name" : "szafa_drzwi_lewe"}, {"matrix" : [3.422854177870249E-08, 0, 0.9999999657714582, 0, 0, 1, 0, 0, -0.9999999657714582, 0, 3.422854177870249E-08, 0, 0, 1.3256480693817139, 0.07105807960033417, 1], "mesh" : 7, "name" : "szafa_drzwi_prawe"}, {"matrix" : [-1, 0, 3.2584136988589307E-07, 0, 0, 1, 0, 0, -3.2584136988589307E-07, 0, -1, 0, 0, 1.3256480693817139, 0.07105819135904312, 1], "mesh" : 8, "name" : "szafa_kontenerek"}, {"matrix" : [-1, 0, 3.2584136988589307E-07, 0, 0, 1, 0, 0, -3.2584136988589307E-07, 0, -1, 0, 0, 1.3256480693817139, 0.07105819135904312, 1], "mesh" : 9, "name" : "szafa_przegroda_pion_x1"}], "scene" : 0, "scenes" : [{"nodes" : [0, 1, 2, 3, 4, 5, 6, 7, 8, 9]}]}
